<svg width="120" height="58" viewBox="0 0 120 58" fill="none" xmlns="http://www.w3.org/2000/svg">
<path d="M71.6289 48.6602L75.8828 34.9375H79.457L73.4336 52H71.0547L71.6289 48.6602ZM67.7031 34.9375L71.9336 48.6602L72.543 52H70.1406L64.1406 34.9375H67.7031ZM84.2617 39.3203V52H81.1562V39.3203H84.2617ZM80.9453 36.0039C80.9453 35.543 81.1016 35.1602 81.4141 34.8555C81.7344 34.5508 82.1641 34.3984 82.7031 34.3984C83.2422 34.3984 83.668 34.5508 83.9805 34.8555C84.3008 35.1602 84.4609 35.543 84.4609 36.0039C84.4609 36.457 84.3008 36.8359 83.9805 37.1406C83.668 37.4453 83.2422 37.5977 82.7031 37.5977C82.1641 37.5977 81.7344 37.4453 81.4141 37.1406C81.1016 36.8359 80.9453 36.457 80.9453 36.0039ZM94.1875 48.5312C94.1875 48.2656 94.1172 48.0273 93.9766 47.8164C93.8359 47.6055 93.5703 47.4141 93.1797 47.2422C92.7969 47.0625 92.2344 46.8945 91.4922 46.7383C90.8359 46.5977 90.2305 46.4219 89.6758 46.2109C89.1211 46 88.6445 45.7461 88.2461 45.4492C87.8477 45.1445 87.5352 44.7891 87.3086 44.3828C87.0898 43.9688 86.9805 43.4922 86.9805 42.9531C86.9805 42.4297 87.0938 41.9375 87.3203 41.4766C87.5469 41.0078 87.875 40.5977 88.3047 40.2461C88.7344 39.8867 89.2578 39.6055 89.875 39.4023C90.4922 39.1914 91.1875 39.0859 91.9609 39.0859C93.0391 39.0859 93.9648 39.2617 94.7383 39.6133C95.5195 39.9648 96.1172 40.4492 96.5312 41.0664C96.9453 41.6758 97.1523 42.3633 97.1523 43.1289H94.0586C94.0586 42.793 93.9805 42.4883 93.8242 42.2148C93.6758 41.9414 93.4453 41.7227 93.1328 41.5586C92.8203 41.3867 92.4258 41.3008 91.9492 41.3008C91.5195 41.3008 91.1562 41.3711 90.8594 41.5117C90.5703 41.6523 90.3516 41.8359 90.2031 42.0625C90.0547 42.2891 89.9805 42.5391 89.9805 42.8125C89.9805 43.0156 90.0195 43.1992 90.0977 43.3633C90.1836 43.5195 90.3203 43.6641 90.5078 43.7969C90.6953 43.9297 90.9492 44.0508 91.2695 44.1602C91.5977 44.2695 92 44.375 92.4766 44.4766C93.4219 44.6641 94.2461 44.9141 94.9492 45.2266C95.6602 45.5312 96.2148 45.9375 96.6133 46.4453C97.0117 46.9531 97.2109 47.6016 97.2109 48.3906C97.2109 48.9531 97.0898 49.4688 96.8477 49.9375C96.6055 50.3984 96.2539 50.8008 95.793 51.1445C95.332 51.4883 94.7812 51.7578 94.1406 51.9531C93.5 52.1406 92.7773 52.2344 91.9727 52.2344C90.8086 52.2344 89.8242 52.0273 89.0195 51.6133C88.2148 51.1914 87.6055 50.6602 87.1914 50.0195C86.7773 49.3711 86.5703 48.6992 86.5703 48.0039H89.5352C89.5586 48.4961 89.6914 48.8906 89.9336 49.1875C90.1758 49.4844 90.4805 49.6992 90.8477 49.832C91.2227 49.957 91.6172 50.0195 92.0312 50.0195C92.5 50.0195 92.8945 49.957 93.2148 49.832C93.5352 49.6992 93.7773 49.5234 93.9414 49.3047C94.1055 49.0781 94.1875 48.8203 94.1875 48.5312ZM105.566 39.3203V41.5469H98.3008V39.3203H105.566ZM100.246 36.2031H103.352V48.3438C103.352 48.7188 103.402 49.0078 103.504 49.2109C103.605 49.4141 103.758 49.5508 103.961 49.6211C104.164 49.6914 104.406 49.7266 104.688 49.7266C104.891 49.7266 105.078 49.7148 105.25 49.6914C105.422 49.668 105.566 49.6445 105.684 49.6211L105.695 51.9414C105.438 52.0273 105.145 52.0977 104.816 52.1523C104.496 52.207 104.133 52.2344 103.727 52.2344C103.031 52.2344 102.422 52.1172 101.898 51.8828C101.375 51.6406 100.969 51.2539 100.68 50.7227C100.391 50.1836 100.246 49.4727 100.246 48.5898V36.2031ZM114.613 49.3047V43.457C114.613 43.0273 114.539 42.6562 114.391 42.3438C114.242 42.0312 114.016 41.7891 113.711 41.6172C113.406 41.4453 113.02 41.3594 112.551 41.3594C112.137 41.3594 111.773 41.4297 111.461 41.5703C111.156 41.7109 110.922 41.9102 110.758 42.168C110.594 42.418 110.512 42.707 110.512 43.0352H107.406C107.406 42.5117 107.531 42.0156 107.781 41.5469C108.031 41.0703 108.387 40.6484 108.848 40.2812C109.316 39.9062 109.875 39.6133 110.523 39.4023C111.18 39.1914 111.914 39.0859 112.727 39.0859C113.688 39.0859 114.543 39.25 115.293 39.5781C116.051 39.8984 116.645 40.3828 117.074 41.0312C117.512 41.6797 117.73 42.4961 117.73 43.4805V49.0117C117.73 49.6445 117.77 50.1875 117.848 50.6406C117.934 51.0859 118.059 51.4727 118.223 51.8008V52H115.07C114.922 51.6797 114.809 51.2734 114.73 50.7812C114.652 50.2812 114.613 49.7891 114.613 49.3047ZM115.047 44.2773L115.07 46.1172H113.113C112.629 46.1172 112.203 46.168 111.836 46.2695C111.469 46.3633 111.168 46.5039 110.934 46.6914C110.699 46.8711 110.523 47.0898 110.406 47.3477C110.289 47.5977 110.23 47.8828 110.23 48.2031C110.23 48.5156 110.301 48.7969 110.441 49.0469C110.59 49.2969 110.801 49.4961 111.074 49.6445C111.355 49.7852 111.684 49.8555 112.059 49.8555C112.605 49.8555 113.082 49.7461 113.488 49.5273C113.895 49.3008 114.211 49.0273 114.438 48.707C114.664 48.3867 114.785 48.082 114.801 47.793L115.691 49.1289C115.582 49.4492 115.418 49.7891 115.199 50.1484C114.98 50.5078 114.699 50.8438 114.355 51.1562C114.012 51.4688 113.598 51.7266 113.113 51.9297C112.629 52.1328 112.066 52.2344 111.426 52.2344C110.605 52.2344 109.871 52.0703 109.223 51.7422C108.574 51.4141 108.062 50.9648 107.688 50.3945C107.312 49.8242 107.125 49.1758 107.125 48.4492C107.125 47.7773 107.25 47.1836 107.5 46.668C107.75 46.1523 108.121 45.7188 108.613 45.3672C109.105 45.0078 109.715 44.7383 110.441 44.5586C111.176 44.3711 112.016 44.2773 112.961 44.2773H115.047Z" fill="#333333"/>
<g clip-path="url(#clip0_3_16)">
<path d="M17.5 6.24168C17.7578 6.24168 18.0051 6.13925 18.1875 5.95692C18.3698 5.7746 18.4722 5.52731 18.4722 5.26946V1.85696C18.4722 1.59911 18.3698 1.35182 18.1875 1.16949C18.0051 0.987165 17.7578 0.884735 17.5 0.884735C17.2421 0.884735 16.9949 0.987165 16.8125 1.16949C16.6302 1.35182 16.5278 1.59911 16.5278 1.85696V5.26946C16.5278 5.52731 16.6302 5.7746 16.8125 5.95692C16.9949 6.13925 17.2421 6.24168 17.5 6.24168Z" fill="#F2C94C"/>
<path d="M17.5 28.7583C17.2421 28.7583 16.9949 28.8608 16.8125 29.0431C16.6302 29.2254 16.5278 29.4727 16.5278 29.7306V33.1431C16.5278 33.4009 16.6302 33.6482 16.8125 33.8305C16.9949 34.0128 17.2421 34.1153 17.5 34.1153C17.7578 34.1153 18.0051 34.0128 18.1875 33.8305C18.3698 33.6482 18.4722 33.4009 18.4722 33.1431V29.7306C18.4722 29.4727 18.3698 29.2254 18.1875 29.0431C18.0051 28.8608 17.7578 28.7583 17.5 28.7583Z" fill="#F2C94C"/>
<path d="M8.16668 9.53751C8.35267 9.69679 8.59191 9.78002 8.83659 9.77056C9.08128 9.76111 9.31338 9.65968 9.48653 9.48653C9.65968 9.31338 9.76111 9.08128 9.77056 8.83659C9.78002 8.59191 9.69679 8.35267 9.53751 8.16668L7.1264 5.75557C6.94041 5.59629 6.70117 5.51306 6.45649 5.52251C6.2118 5.53197 5.97969 5.6334 5.80655 5.80655C5.6334 5.97969 5.53197 6.2118 5.52251 6.45649C5.51306 6.70117 5.59629 6.94041 5.75557 7.1264L8.16668 9.53751Z" fill="#F2C94C"/>
<path d="M26.8333 25.4625C26.6474 25.3032 26.4081 25.22 26.1634 25.2295C25.9187 25.2389 25.6866 25.3403 25.5135 25.5135C25.3403 25.6866 25.2389 25.9187 25.2295 26.1634C25.22 26.4081 25.3032 26.6474 25.4625 26.8333L27.8736 29.2445C28.0596 29.4037 28.2988 29.487 28.5435 29.4775C28.7882 29.4681 29.0203 29.3666 29.1935 29.1935C29.3666 29.0203 29.4681 28.7882 29.4775 28.5435C29.487 28.2988 29.4037 28.0596 29.2445 27.8736L26.8333 25.4625Z" fill="#F2C94C"/>
<path d="M6.24168 17.5C6.24168 17.2421 6.13925 16.9949 5.95692 16.8125C5.7746 16.6302 5.52731 16.5278 5.26946 16.5278H1.85696C1.59911 16.5278 1.35182 16.6302 1.16949 16.8125C0.987165 16.9949 0.884735 17.2421 0.884735 17.5C0.884735 17.7578 0.987165 18.0051 1.16949 18.1875C1.35182 18.3698 1.59911 18.4722 1.85696 18.4722H5.26946C5.52731 18.4722 5.7746 18.3698 5.95692 18.1875C6.13925 18.0051 6.24168 17.7578 6.24168 17.5Z" fill="#F2C94C"/>
<path d="M33.1431 16.5278H29.7306C29.4727 16.5278 29.2254 16.6302 29.0431 16.8125C28.8608 16.9949 28.7583 17.2421 28.7583 17.5C28.7583 17.7578 28.8608 18.0051 29.0431 18.1875C29.2254 18.3698 29.4727 18.4722 29.7306 18.4722H33.1431C33.4009 18.4722 33.6482 18.3698 33.8305 18.1875C34.0128 18.0051 34.1153 17.7578 34.1153 17.5C34.1153 17.2421 34.0128 16.9949 33.8305 16.8125C33.6482 16.6302 33.4009 16.5278 33.1431 16.5278Z" fill="#F2C94C"/>
<path d="M8.16668 25.4625L5.75557 27.8736C5.59629 28.0596 5.51306 28.2988 5.52251 28.5435C5.53197 28.7882 5.6334 29.0203 5.80655 29.1935C5.97969 29.3666 6.2118 29.4681 6.45649 29.4775C6.70117 29.487 6.94041 29.4037 7.1264 29.2445L9.53751 26.8333C9.69679 26.6474 9.78002 26.4081 9.77056 26.1634C9.76111 25.9187 9.65968 25.6866 9.48653 25.5135C9.31338 25.3403 9.08128 25.2389 8.83659 25.2295C8.59191 25.22 8.35267 25.3032 8.16668 25.4625Z" fill="#F2C94C"/>
<path d="M26.8333 9.53751L29.2445 7.1264C29.4037 6.94041 29.487 6.70117 29.4775 6.45649C29.4681 6.2118 29.3666 5.97969 29.1935 5.80655C29.0203 5.6334 28.7882 5.53197 28.5435 5.52251C28.2988 5.51306 28.0596 5.59629 27.8736 5.75557L25.4625 8.16668C25.3032 8.35267 25.22 8.59191 25.2295 8.83659C25.2389 9.08128 25.3403 9.31338 25.5135 9.48653C25.6866 9.65968 25.9187 9.76111 26.1634 9.77056C26.4081 9.78002 26.6474 9.69679 26.8333 9.53751Z" fill="#F2C94C"/>
<path d="M17.5 27.2222C22.8694 27.2222 27.2222 22.8694 27.2222 17.5C27.2222 12.1306 22.8694 7.77777 17.5 7.77777C12.1306 7.77777 7.77777 12.1306 7.77777 17.5C7.77777 22.8694 12.1306 27.2222 17.5 27.2222Z" fill="#F2C94C"/>
</g>
<defs>
<clipPath id="clip0_3_16">
<rect width="35" height="35" fill="white"/>
</clipPath>
</defs>
</svg>
