<svg width="120" height="58" viewBox="0 0 120 58" fill="none" xmlns="http://www.w3.org/2000/svg">
<path d="M50.6094 26.3027C50.6094 25.8457 50.5391 25.4355 50.3984 25.0723C50.2695 24.6973 50.0234 24.3574 49.6602 24.0527C49.2969 23.7363 48.7871 23.4258 48.1309 23.1211C47.4746 22.8164 46.625 22.5 45.582 22.1719C44.4219 21.7969 43.3203 21.375 42.2773 20.9062C41.2461 20.4375 40.332 19.8926 39.5352 19.2715C38.75 18.6387 38.1289 17.9062 37.6719 17.0742C37.2266 16.2422 37.0039 15.2754 37.0039 14.1738C37.0039 13.1074 37.2383 12.1406 37.707 11.2734C38.1758 10.3945 38.832 9.64453 39.6758 9.02344C40.5195 8.39062 41.5156 7.9043 42.6641 7.56445C43.8242 7.22461 45.0957 7.05469 46.4785 7.05469C48.3652 7.05469 50.0117 7.39453 51.418 8.07422C52.8242 8.75391 53.9141 9.68555 54.6875 10.8691C55.4727 12.0527 55.8652 13.4062 55.8652 14.9297H50.627C50.627 14.1797 50.4688 13.5234 50.1523 12.9609C49.8477 12.3867 49.3789 11.9355 48.7461 11.6074C48.125 11.2793 47.3398 11.1152 46.3906 11.1152C45.4766 11.1152 44.7148 11.2559 44.1055 11.5371C43.4961 11.8066 43.0391 12.1758 42.7344 12.6445C42.4297 13.1016 42.2773 13.6172 42.2773 14.1914C42.2773 14.625 42.3828 15.0176 42.5938 15.3691C42.8164 15.7207 43.1445 16.0488 43.5781 16.3535C44.0117 16.6582 44.5449 16.9453 45.1777 17.2148C45.8105 17.4844 46.543 17.748 47.375 18.0059C48.7695 18.4277 49.9941 18.9023 51.0488 19.4297C52.1152 19.957 53.0059 20.5488 53.7207 21.2051C54.4355 21.8613 54.9746 22.6055 55.3379 23.4375C55.7012 24.2695 55.8828 25.2129 55.8828 26.2676C55.8828 27.3809 55.666 28.377 55.2324 29.2559C54.7988 30.1348 54.1719 30.8789 53.3516 31.4883C52.5312 32.0977 51.5527 32.5605 50.416 32.877C49.2793 33.1934 48.0078 33.3516 46.6016 33.3516C45.3359 33.3516 44.0879 33.1875 42.8574 32.8594C41.627 32.5195 40.5078 32.0098 39.5 31.3301C38.5039 30.6504 37.707 29.7832 37.1094 28.7285C36.5117 27.6738 36.2129 26.4258 36.2129 24.9844H41.5039C41.5039 25.7812 41.627 26.4551 41.873 27.0059C42.1191 27.5566 42.4648 28.002 42.9102 28.3418C43.3672 28.6816 43.9062 28.9277 44.5273 29.0801C45.1602 29.2324 45.8516 29.3086 46.6016 29.3086C47.5156 29.3086 48.2656 29.1797 48.8516 28.9219C49.4492 28.6641 49.8887 28.3066 50.1699 27.8496C50.4629 27.3926 50.6094 26.877 50.6094 26.3027ZM58.3438 23.6836V23.3145C58.3438 21.9199 58.543 20.6367 58.9414 19.4648C59.3398 18.2812 59.9199 17.2559 60.6816 16.3887C61.4434 15.5215 62.3809 14.8477 63.4941 14.3672C64.6074 13.875 65.8848 13.6289 67.3262 13.6289C68.7676 13.6289 70.0508 13.875 71.1758 14.3672C72.3008 14.8477 73.2441 15.5215 74.0059 16.3887C74.7793 17.2559 75.3652 18.2812 75.7637 19.4648C76.1621 20.6367 76.3613 21.9199 76.3613 23.3145V23.6836C76.3613 25.0664 76.1621 26.3496 75.7637 27.5332C75.3652 28.7051 74.7793 29.7305 74.0059 30.6094C73.2441 31.4766 72.3066 32.1504 71.1934 32.6309C70.0801 33.1113 68.8027 33.3516 67.3613 33.3516C65.9199 33.3516 64.6367 33.1113 63.5117 32.6309C62.3984 32.1504 61.4551 31.4766 60.6816 30.6094C59.9199 29.7305 59.3398 28.7051 58.9414 27.5332C58.543 26.3496 58.3438 25.0664 58.3438 23.6836ZM63.4062 23.3145V23.6836C63.4062 24.4805 63.4766 25.2246 63.6172 25.916C63.7578 26.6074 63.9805 27.2168 64.2852 27.7441C64.6016 28.2598 65.0117 28.6641 65.5156 28.957C66.0195 29.25 66.6348 29.3965 67.3613 29.3965C68.0645 29.3965 68.668 29.25 69.1719 28.957C69.6758 28.6641 70.0801 28.2598 70.3848 27.7441C70.6895 27.2168 70.9121 26.6074 71.0527 25.916C71.2051 25.2246 71.2812 24.4805 71.2812 23.6836V23.3145C71.2812 22.541 71.2051 21.8145 71.0527 21.1348C70.9121 20.4434 70.6836 19.834 70.3672 19.3066C70.0625 18.7676 69.6582 18.3457 69.1543 18.041C68.6504 17.7363 68.041 17.584 67.3262 17.584C66.6113 17.584 66.002 17.7363 65.498 18.041C65.0059 18.3457 64.6016 18.7676 64.2852 19.3066C63.9805 19.834 63.7578 20.4434 63.6172 21.1348C63.4766 21.8145 63.4062 22.541 63.4062 23.3145ZM84.8164 6V33H79.7363V6H84.8164ZM99.2656 28.7109V20.2383C99.2656 19.6289 99.166 19.1074 98.9668 18.6738C98.7676 18.2285 98.457 17.8828 98.0352 17.6367C97.625 17.3906 97.0918 17.2676 96.4355 17.2676C95.873 17.2676 95.3867 17.3672 94.9766 17.5664C94.5664 17.7539 94.25 18.0293 94.0273 18.3926C93.8047 18.7441 93.6934 19.1602 93.6934 19.6406H88.6309C88.6309 18.832 88.8184 18.0645 89.1934 17.3379C89.5684 16.6113 90.1133 15.9727 90.8281 15.4219C91.543 14.8594 92.3926 14.4199 93.377 14.1035C94.373 13.7871 95.4863 13.6289 96.7168 13.6289C98.1934 13.6289 99.5059 13.875 100.654 14.3672C101.803 14.8594 102.705 15.5977 103.361 16.582C104.029 17.5664 104.363 18.7969 104.363 20.2734V28.4121C104.363 29.4551 104.428 30.3105 104.557 30.9785C104.686 31.6348 104.873 32.209 105.119 32.7012V33H100.004C99.7578 32.4844 99.5703 31.8398 99.4414 31.0664C99.3242 30.2812 99.2656 29.4961 99.2656 28.7109ZM99.9336 21.416L99.9688 24.2812H97.1387C96.4707 24.2812 95.8906 24.3574 95.3984 24.5098C94.9062 24.6621 94.502 24.8789 94.1855 25.1602C93.8691 25.4297 93.6348 25.7461 93.4824 26.1094C93.3418 26.4727 93.2715 26.8711 93.2715 27.3047C93.2715 27.7383 93.3711 28.1309 93.5703 28.4824C93.7695 28.8223 94.0566 29.0918 94.4316 29.291C94.8066 29.4785 95.2461 29.5723 95.75 29.5723C96.5117 29.5723 97.1738 29.4199 97.7363 29.1152C98.2988 28.8105 98.7324 28.4355 99.0371 27.9902C99.3535 27.5449 99.5176 27.123 99.5293 26.7246L100.865 28.8691C100.678 29.3496 100.42 29.8477 100.092 30.3633C99.7754 30.8789 99.3711 31.3652 98.8789 31.8223C98.3867 32.2676 97.7949 32.6367 97.1035 32.9297C96.4121 33.2109 95.5918 33.3516 94.6426 33.3516C93.4355 33.3516 92.3398 33.1113 91.3555 32.6309C90.3828 32.1387 89.6094 31.4648 89.0352 30.6094C88.4727 29.7422 88.1914 28.7578 88.1914 27.6562C88.1914 26.6602 88.3789 25.7754 88.7539 25.002C89.1289 24.2285 89.6797 23.5781 90.4062 23.0508C91.1445 22.5117 92.0645 22.1074 93.166 21.8379C94.2676 21.5566 95.5449 21.416 96.998 21.416H99.9336ZM113.328 18.1289V33H108.266V13.9805H113.029L113.328 18.1289ZM119.059 13.8574L118.971 18.5508C118.725 18.5156 118.426 18.4863 118.074 18.4629C117.734 18.4277 117.424 18.4102 117.143 18.4102C116.428 18.4102 115.807 18.5039 115.279 18.6914C114.764 18.8672 114.33 19.1309 113.979 19.4824C113.639 19.834 113.381 20.2617 113.205 20.7656C113.041 21.2695 112.947 21.8438 112.924 22.4883L111.904 22.1719C111.904 20.9414 112.027 19.8105 112.273 18.7793C112.52 17.7363 112.877 16.8281 113.346 16.0547C113.826 15.2812 114.412 14.6836 115.104 14.2617C115.795 13.8398 116.586 13.6289 117.477 13.6289C117.758 13.6289 118.045 13.6523 118.338 13.6992C118.631 13.7344 118.871 13.7871 119.059 13.8574Z" fill="white"/>
<path d="M71.6289 48.6602L75.8828 34.9375H79.457L73.4336 52H71.0547L71.6289 48.6602ZM67.7031 34.9375L71.9336 48.6602L72.543 52H70.1406L64.1406 34.9375H67.7031ZM84.2617 39.3203V52H81.1562V39.3203H84.2617ZM80.9453 36.0039C80.9453 35.543 81.1016 35.1602 81.4141 34.8555C81.7344 34.5508 82.1641 34.3984 82.7031 34.3984C83.2422 34.3984 83.668 34.5508 83.9805 34.8555C84.3008 35.1602 84.4609 35.543 84.4609 36.0039C84.4609 36.457 84.3008 36.8359 83.9805 37.1406C83.668 37.4453 83.2422 37.5977 82.7031 37.5977C82.1641 37.5977 81.7344 37.4453 81.4141 37.1406C81.1016 36.8359 80.9453 36.457 80.9453 36.0039ZM94.1875 48.5312C94.1875 48.2656 94.1172 48.0273 93.9766 47.8164C93.8359 47.6055 93.5703 47.4141 93.1797 47.2422C92.7969 47.0625 92.2344 46.8945 91.4922 46.7383C90.8359 46.5977 90.2305 46.4219 89.6758 46.2109C89.1211 46 88.6445 45.7461 88.2461 45.4492C87.8477 45.1445 87.5352 44.7891 87.3086 44.3828C87.0898 43.9688 86.9805 43.4922 86.9805 42.9531C86.9805 42.4297 87.0938 41.9375 87.3203 41.4766C87.5469 41.0078 87.875 40.5977 88.3047 40.2461C88.7344 39.8867 89.2578 39.6055 89.875 39.4023C90.4922 39.1914 91.1875 39.0859 91.9609 39.0859C93.0391 39.0859 93.9648 39.2617 94.7383 39.6133C95.5195 39.9648 96.1172 40.4492 96.5312 41.0664C96.9453 41.6758 97.1523 42.3633 97.1523 43.1289H94.0586C94.0586 42.793 93.9805 42.4883 93.8242 42.2148C93.6758 41.9414 93.4453 41.7227 93.1328 41.5586C92.8203 41.3867 92.4258 41.3008 91.9492 41.3008C91.5195 41.3008 91.1562 41.3711 90.8594 41.5117C90.5703 41.6523 90.3516 41.8359 90.2031 42.0625C90.0547 42.2891 89.9805 42.5391 89.9805 42.8125C89.9805 43.0156 90.0195 43.1992 90.0977 43.3633C90.1836 43.5195 90.3203 43.6641 90.5078 43.7969C90.6953 43.9297 90.9492 44.0508 91.2695 44.1602C91.5977 44.2695 92 44.375 92.4766 44.4766C93.4219 44.6641 94.2461 44.9141 94.9492 45.2266C95.6602 45.5312 96.2148 45.9375 96.6133 46.4453C97.0117 46.9531 97.2109 47.6016 97.2109 48.3906C97.2109 48.9531 97.0898 49.4688 96.8477 49.9375C96.6055 50.3984 96.2539 50.8008 95.793 51.1445C95.332 51.4883 94.7812 51.7578 94.1406 51.9531C93.5 52.1406 92.7773 52.2344 91.9727 52.2344C90.8086 52.2344 89.8242 52.0273 89.0195 51.6133C88.2148 51.1914 87.6055 50.6602 87.1914 50.0195C86.7773 49.3711 86.5703 48.6992 86.5703 48.0039H89.5352C89.5586 48.4961 89.6914 48.8906 89.9336 49.1875C90.1758 49.4844 90.4805 49.6992 90.8477 49.832C91.2227 49.957 91.6172 50.0195 92.0312 50.0195C92.5 50.0195 92.8945 49.957 93.2148 49.832C93.5352 49.6992 93.7773 49.5234 93.9414 49.3047C94.1055 49.0781 94.1875 48.8203 94.1875 48.5312ZM105.566 39.3203V41.5469H98.3008V39.3203H105.566ZM100.246 36.2031H103.352V48.3438C103.352 48.7188 103.402 49.0078 103.504 49.2109C103.605 49.4141 103.758 49.5508 103.961 49.6211C104.164 49.6914 104.406 49.7266 104.688 49.7266C104.891 49.7266 105.078 49.7148 105.25 49.6914C105.422 49.668 105.566 49.6445 105.684 49.6211L105.695 51.9414C105.438 52.0273 105.145 52.0977 104.816 52.1523C104.496 52.207 104.133 52.2344 103.727 52.2344C103.031 52.2344 102.422 52.1172 101.898 51.8828C101.375 51.6406 100.969 51.2539 100.68 50.7227C100.391 50.1836 100.246 49.4727 100.246 48.5898V36.2031ZM114.613 49.3047V43.457C114.613 43.0273 114.539 42.6562 114.391 42.3438C114.242 42.0312 114.016 41.7891 113.711 41.6172C113.406 41.4453 113.02 41.3594 112.551 41.3594C112.137 41.3594 111.773 41.4297 111.461 41.5703C111.156 41.7109 110.922 41.9102 110.758 42.168C110.594 42.418 110.512 42.707 110.512 43.0352H107.406C107.406 42.5117 107.531 42.0156 107.781 41.5469C108.031 41.0703 108.387 40.6484 108.848 40.2812C109.316 39.9062 109.875 39.6133 110.523 39.4023C111.18 39.1914 111.914 39.0859 112.727 39.0859C113.688 39.0859 114.543 39.25 115.293 39.5781C116.051 39.8984 116.645 40.3828 117.074 41.0312C117.512 41.6797 117.73 42.4961 117.73 43.4805V49.0117C117.73 49.6445 117.77 50.1875 117.848 50.6406C117.934 51.0859 118.059 51.4727 118.223 51.8008V52H115.07C114.922 51.6797 114.809 51.2734 114.73 50.7812C114.652 50.2812 114.613 49.7891 114.613 49.3047ZM115.047 44.2773L115.07 46.1172H113.113C112.629 46.1172 112.203 46.168 111.836 46.2695C111.469 46.3633 111.168 46.5039 110.934 46.6914C110.699 46.8711 110.523 47.0898 110.406 47.3477C110.289 47.5977 110.23 47.8828 110.23 48.2031C110.23 48.5156 110.301 48.7969 110.441 49.0469C110.59 49.2969 110.801 49.4961 111.074 49.6445C111.355 49.7852 111.684 49.8555 112.059 49.8555C112.605 49.8555 113.082 49.7461 113.488 49.5273C113.895 49.3008 114.211 49.0273 114.438 48.707C114.664 48.3867 114.785 48.082 114.801 47.793L115.691 49.1289C115.582 49.4492 115.418 49.7891 115.199 50.1484C114.98 50.5078 114.699 50.8438 114.355 51.1562C114.012 51.4688 113.598 51.7266 113.113 51.9297C112.629 52.1328 112.066 52.2344 111.426 52.2344C110.605 52.2344 109.871 52.0703 109.223 51.7422C108.574 51.4141 108.062 50.9648 107.688 50.3945C107.312 49.8242 107.125 49.1758 107.125 48.4492C107.125 47.7773 107.25 47.1836 107.5 46.668C107.75 46.1523 108.121 45.7188 108.613 45.3672C109.105 45.0078 109.715 44.7383 110.441 44.5586C111.176 44.3711 112.016 44.2773 112.961 44.2773H115.047Z" fill="#F2F2F2"/>
<g clip-path="url(#clip0_3_2)">
<path d="M17.5 6.24168C17.7578 6.24168 18.0051 6.13925 18.1875 5.95692C18.3698 5.7746 18.4722 5.52731 18.4722 5.26946V1.85696C18.4722 1.59911 18.3698 1.35182 18.1875 1.16949C18.0051 0.987165 17.7578 0.884735 17.5 0.884735C17.2421 0.884735 16.9949 0.987165 16.8125 1.16949C16.6302 1.35182 16.5278 1.59911 16.5278 1.85696V5.26946C16.5278 5.52731 16.6302 5.7746 16.8125 5.95692C16.9949 6.13925 17.2421 6.24168 17.5 6.24168Z" fill="#F2C94C"/>
<path d="M17.5 28.7583C17.2421 28.7583 16.9949 28.8608 16.8125 29.0431C16.6302 29.2254 16.5278 29.4727 16.5278 29.7306V33.1431C16.5278 33.4009 16.6302 33.6482 16.8125 33.8305C16.9949 34.0128 17.2421 34.1153 17.5 34.1153C17.7578 34.1153 18.0051 34.0128 18.1875 33.8305C18.3698 33.6482 18.4722 33.4009 18.4722 33.1431V29.7306C18.4722 29.4727 18.3698 29.2254 18.1875 29.0431C18.0051 28.8608 17.7578 28.7583 17.5 28.7583Z" fill="#F2C94C"/>
<path d="M8.16668 9.53751C8.35267 9.69679 8.59191 9.78002 8.83659 9.77056C9.08128 9.76111 9.31338 9.65968 9.48653 9.48653C9.65968 9.31338 9.76111 9.08128 9.77056 8.83659C9.78002 8.59191 9.69679 8.35267 9.53751 8.16668L7.1264 5.75557C6.94041 5.59629 6.70117 5.51306 6.45649 5.52251C6.2118 5.53197 5.97969 5.6334 5.80655 5.80655C5.6334 5.97969 5.53197 6.2118 5.52251 6.45649C5.51306 6.70117 5.59629 6.94041 5.75557 7.1264L8.16668 9.53751Z" fill="#F2C94C"/>
<path d="M26.8333 25.4625C26.6473 25.3032 26.4081 25.22 26.1634 25.2295C25.9187 25.2389 25.6866 25.3403 25.5135 25.5135C25.3403 25.6866 25.2389 25.9187 25.2294 26.1634C25.22 26.4081 25.3032 26.6474 25.4625 26.8333L27.8736 29.2445C28.0596 29.4037 28.2988 29.487 28.5435 29.4775C28.7882 29.4681 29.0203 29.3666 29.1934 29.1935C29.3666 29.0203 29.468 28.7882 29.4775 28.5435C29.4869 28.2988 29.4037 28.0596 29.2444 27.8736L26.8333 25.4625Z" fill="#F2C94C"/>
<path d="M6.24165 17.5C6.24165 17.2421 6.13922 16.9949 5.95689 16.8125C5.77456 16.6302 5.52728 16.5278 5.26943 16.5278H1.85693C1.59908 16.5278 1.35179 16.6302 1.16946 16.8125C0.987135 16.9949 0.884705 17.2421 0.884705 17.5C0.884705 17.7578 0.987135 18.0051 1.16946 18.1875C1.35179 18.3698 1.59908 18.4722 1.85693 18.4722H5.26943C5.52728 18.4722 5.77456 18.3698 5.95689 18.1875C6.13922 18.0051 6.24165 17.7578 6.24165 17.5Z" fill="#F2C94C"/>
<path d="M33.1431 16.5278H29.7306C29.4727 16.5278 29.2254 16.6302 29.0431 16.8125C28.8608 16.9949 28.7584 17.2421 28.7584 17.5C28.7584 17.7578 28.8608 18.0051 29.0431 18.1875C29.2254 18.3698 29.4727 18.4722 29.7306 18.4722H33.1431C33.4009 18.4722 33.6482 18.3698 33.8305 18.1875C34.0129 18.0051 34.1153 17.7578 34.1153 17.5C34.1153 17.2421 34.0129 16.9949 33.8305 16.8125C33.6482 16.6302 33.4009 16.5278 33.1431 16.5278Z" fill="#F2C94C"/>
<path d="M8.16668 25.4625L5.75557 27.8736C5.59629 28.0596 5.51306 28.2988 5.52251 28.5435C5.53197 28.7882 5.6334 29.0203 5.80655 29.1935C5.97969 29.3666 6.2118 29.4681 6.45649 29.4775C6.70117 29.487 6.94041 29.4037 7.1264 29.2445L9.53751 26.8333C9.69679 26.6474 9.78002 26.4081 9.77056 26.1634C9.76111 25.9187 9.65968 25.6866 9.48653 25.5135C9.31338 25.3403 9.08128 25.2389 8.83659 25.2295C8.59191 25.22 8.35267 25.3032 8.16668 25.4625Z" fill="#F2C94C"/>
<path d="M26.8333 9.53751L29.2444 7.1264C29.4037 6.94041 29.4869 6.70117 29.4775 6.45649C29.468 6.2118 29.3666 5.97969 29.1934 5.80655C29.0203 5.6334 28.7882 5.53197 28.5435 5.52251C28.2988 5.51306 28.0596 5.59629 27.8736 5.75557L25.4625 8.16668C25.3032 8.35267 25.22 8.59191 25.2294 8.83659C25.2389 9.08128 25.3403 9.31338 25.5135 9.48653C25.6866 9.65968 25.9187 9.76111 26.1634 9.77056C26.4081 9.78002 26.6473 9.69679 26.8333 9.53751Z" fill="#F2C94C"/>
<path d="M17.5 27.2222C22.8694 27.2222 27.2222 22.8694 27.2222 17.5C27.2222 12.1306 22.8694 7.77777 17.5 7.77777C12.1306 7.77777 7.77777 12.1306 7.77777 17.5C7.77777 22.8694 12.1306 27.2222 17.5 27.2222Z" fill="#F2C94C"/>
</g>
<defs>
<clipPath id="clip0_3_2">
<rect width="35" height="35" fill="white"/>
</clipPath>
</defs>
</svg>
